<svg xmlns="http://www.w3.org/2000/svg" viewBox="0 0 357 321"><defs><style>.cls-1{fill:#fff;}</style></defs><g id="patient"><g id="laying-person"><path d="M307,318.5A47.5,47.5,0,1,1,354.5,271,47.56,47.56,0,0,1,307,318.5Zm-296-14A8.48,8.48,0,0,1,2.5,296V264A8.48,8.48,0,0,1,11,255.5H234A8.48,8.48,0,0,1,242.5,264V296A8.48,8.48,0,0,1,234,304.5Z"/><path d="M307,226a45,45,0,1,1-45,45,45.05,45.05,0,0,1,45-45m-73,32a6,6,0,0,1,6,6V296a6,6,0,0,1-6,6H11a6,6,0,0,1-6-6V264a6,6,0,0,1,6-6H234m73-37a50,50,0,1,0,50,50,50,50,0,0,0-50-50Zm-73,32H11A11,11,0,0,0,0,264V296a11,11,0,0,0,11,11H234a11,11,0,0,0,11-11V264a11,11,0,0,0-11-11Z"/></g></g><g id="doctor"><g id="doctor-body"><rect x="107.5" y="112.5" width="103" height="121" rx="9.5"/><path d="M201,115a7,7,0,0,1,7,7V224a7,7,0,0,1-7,7H117a7,7,0,0,1-7-7V122a7,7,0,0,1,7-7h84m0-5H117a12,12,0,0,0-12,12V224a12,12,0,0,0,12,12h84a12,12,0,0,0,12-12V122a12,12,0,0,0-12-12Z"/></g><g id="doctor-arms"><path d="M197.88,248.36a11.09,11.09,0,0,1-1.9-.17l-13.44-2.34a11.15,11.15,0,0,1-9.07-12.9l11.79-67.74a11.13,11.13,0,0,1,12.91-9.07l13.43,2.34a11.19,11.19,0,0,1,9.08,12.9l-11.8,67.74a11.14,11.14,0,0,1-11,9.24Zm-77.65-1.56a10.43,10.43,0,0,1-10.29-8.64l-11.84-68a10.47,10.47,0,0,1,8.49-12.06l10.82-1.89a10.72,10.72,0,0,1,1.79-.15,10.41,10.41,0,0,1,10.28,8.64l11.84,68a10.48,10.48,0,0,1-8.49,12.07L122,246.64a10.71,10.71,0,0,1-1.78.16Z"/><path class="cls-1" d="M196.26,158.47a9.25,9.25,0,0,1,1.48.13l13.43,2.34a8.66,8.66,0,0,1,7,10l-11.79,67.74a8.76,8.76,0,0,1-8.54,7.17,8,8,0,0,1-1.47-.13L183,243.39a8.66,8.66,0,0,1-7-10l11.8-67.74a8.76,8.76,0,0,1,8.53-7.17m-77.07.09a8,8,0,0,1,7.82,6.57l11.85,68a7.94,7.94,0,0,1-6.46,9.17l-10.82,1.89a7.81,7.81,0,0,1-1.36.12,8,8,0,0,1-7.82-6.57l-11.84-68a7.94,7.94,0,0,1,6.46-9.17l10.82-1.89a8.78,8.78,0,0,1,1.35-.11m77.07-5.09a13.71,13.71,0,0,0-13.46,11.32L171,232.52a13.7,13.7,0,0,0,11.1,15.8l13.44,2.34a14.19,14.19,0,0,0,2.33.2,13.7,13.7,0,0,0,13.46-11.31l11.8-67.74A13.68,13.68,0,0,0,212,156l-13.43-2.34a13.39,13.39,0,0,0-2.34-.21Zm-77.07.09a12.85,12.85,0,0,0-2.21.19l-10.82,1.88a13,13,0,0,0-10.52,15l11.84,68a12.88,12.88,0,0,0,15,10.52l10.82-1.88a13,13,0,0,0,10.52-15l-11.84-68a13,13,0,0,0-12.75-10.71Z"/></g><g id="doctor-head"><circle cx="158.5" cy="50" r="47.5"/><path d="M158.5,5a45,45,0,1,1-45,45,45.05,45.05,0,0,1,45-45m0-5a50,50,0,1,0,50,50,50,50,0,0,0-50-50Z"/></g></g></svg>