<svg xmlns="http://www.w3.org/2000/svg" viewBox="0 0 109.5 160"><defs><style>.cls-1{fill:none;stroke:#000;stroke-miterlimit:10;stroke-width:5px;}</style></defs><g id="guts"><path id="guts-2" data-name="guts" class="cls-1" d="M28,100.5s-9,18-1,33l68-1m-95,18,95.5-50-64,1c-9.36,0-12.42-13.24-13.24-18.17a1.57,1.57,0,0,1,1.55-1.83h9.42a2.27,2.27,0,0,1,2.18,1.64c.78,2.84,2.75,8.36,5.09,8.36l63.36-1c2,0,3,.57,3.42,1.51,1.61,3.48,4.8,12.16.07,18.44a2.58,2.58,0,0,1-2,1l-63.81,1c-6.1.17-5.5,7-1.5,9h65.09a3.59,3.59,0,0,1,3.09,1.75c2,3.3,5.22,10.85,0,18.66a3.74,3.74,0,0,1-3.05,1.62l-66.63,1s-4.5,4,.5,11h0a1.38,1.38,0,0,1-1.24,2h-5.6a3.78,3.78,0,0,1-3.64-2.75c-2-7.09,2.48-21.25,2.48-21.25"/></g><g id="stomach"><path d="M18.73,78h9.32a1.52,1.52,0,0,0,1.51-1.42c.14-1.84.56-4.89,1.94-5.58,4.47-2.24,18.68,6.17,32,7,16,1,34-16,37-28,2.92-11.68,2.15-32.07-18-38C65.5,7,46.88,18.78,40,20.13,35.5,21,32.5,15,31.5,9a28.79,28.79,0,0,1-.59-7.61A1.22,1.22,0,0,0,29.7,0H18.92A1.23,1.23,0,0,0,17.7,1.41c.74,5,3.41,21.51,6.8,26.59,4,6,10,1,16,13,2,6,4,15.6-15,18-9.72,1.23-8.77,13.72-8.21,17.75A1.46,1.46,0,0,0,18.73,78Z"/></g></svg>