<svg id="neuron" xmlns="http://www.w3.org/2000/svg" viewBox="0 0 449.55 383.65">
	<style>
		#neuron:hover { fill: #3377a0 !important; }
		#neuron { cursor: pointer; }

	</style>
	<path d="M440,200.61c-7.21-3.52-42.61-17.92-42.61-17.92s19.23-6.17,28.85-24.63c6.55-12.55-4.24-15.45-21.52-3.67-13.5,9.2-31.65,12.5-44.72,6.22-32-15.39-69.86-6.05-79.65,4.22a63.42,63.42,0,0,0-15.84-16.7c8.14-25,33.69-57,53-57,18,0,57-7.33,57-15C374.43,61.55,363.43,66,346.72,68c-13.16,1.62-14.34-24-15.22-28.92-3-17-26.25-36.7-25-8,1,23,32,33-7,47-19.5,7-37.85,41.71-46.06,63.59a62.6,62.6,0,0,0-25.5-5.58c3-17.09-16.13-49.25-27.44-74-5.74-12.56-10-22-7-31,10-14-20.79-59.76-20.15-4.53.15,12.53,6,22-10.88,25.88-16,3.65-31,11.65-35,22.65-10,22,43.16-5.12,48-6,35.11,20.51,36.9,52.35,32.16,70.2a63,63,0,0,0-22.16,12.85c-8.12-16.61-37.12-35-82.12-11.55-16.71,8.7-35.64,7.41-35-6,1-23.32-12.29-46.63-18.8-20,0,0-1.7,37,4.28,40s-18.18-5.44-34.18-7c-20.51-2-25.74,23.32-12,21s49.43,9.58,61.53,3c32.27-17.57,94.7-40.07,104.35-5.05a62.68,62.68,0,0,0-8.93,28.78c-18-7-57.35-5.84-69.65,23.4-12.7,30.22-35-5.35-50.26-3s6.83,13.74,6.83,13.74l22.56,6.84s-9.85,14.55-19,23.27c-12.43,11.83-6.31,15.29,7.31,9.83s37.91-37.48,37.91-37.48c9.58-19.93,31.44-33.4,64.61-25.71a63,63,0,0,0,45,53.36c3.43,24.51-37.43,59-54.87,54,0,0-21,0-38.87,12.31-21,14.47,42.88,2.28,42.88,2.28s6.69,11.32-10,24.41c-24.31,19.05-5.21,31-5.21,31,4.2.57,19.71-28.36,40.21-56,12.82-17.31,36.87-45.46,48.62-65.73a62.6,62.6,0,0,0,29.95-10.44,23,23,0,0,0,3.43,2.17c70.14,36.51,32.06,52.52,18,66-17.45,15.06-21.34,34.34-.23,20.15C299.28,329.35,306,324.61,306,324.61s2.87-9.37,18.54,16.7c25,41.53,35.5,20.55,23.77-.13,0,0-32.86-19.06-24.31-37.57,8.4-18.2-21.69-54.33-47.07-65.47a63,63,0,0,0,12.22-52c18.1-30.23,58.31-19.45,70.85-10.49,0,0,46.59,32.73,72,42S450.71,205.83,440,200.61Zm-196,15a23.2,23.2,0,1,1,0-32.81A23.2,23.2,0,0,1,244,215.61Z"/></svg>