<svg xmlns="http://www.w3.org/2000/svg" viewBox="0 0 630 521.12"><defs><style>.cls-1{fill:none;stroke:#000;stroke-miterlimit:10;stroke-width:5.46px;}</style></defs><g id="baby"><g id="baby-ultrasound"><path d="M250.23,350.33c-34.85,0-59.66-6-75.84-18.26-13.15-10-20.68-24.16-23.68-44.6-.38-2.58-.69-5.07-.91-7.42-1.6-17.1,1.47-22.51,2.86-24a3.32,3.32,0,0,1,2.57-1.2,8.9,8.9,0,0,1,4.49,1.68l2.83-4.12c-9.64-7.06-21-7.88-28.75-7.88-1.85,0-3.77,0-6.06.16-1.6.07-3.21.11-4.79.11-10.39,0-13.76-1.59-14.23-2.24-1.37-13.62-1.3-14.12-1.17-15.12a24.06,24.06,0,0,0,.18-3.57c0-6.8,8-11.91,13.13-11.91,2.68,0,3.87,1.2,3.87,3.91,0,.76.32,3.25,4.37,3.25,7,0,28.22-6.69,45-12.9,9.83-3.64,18.62-5.49,26.14-5.49,16.3,0,23.64,8.6,28.47,14.63a2.53,2.53,0,0,0-1.36,2.12c-.11,2.55,2.3,2.9,6.35,3.27a5.48,5.48,0,0,0,3.14,1.06,5,5,0,0,0,2.48-.68c3.25.16,6.9.24,10.91.24,1.88,0,4.93.28,7.87.54,2.21.2,4.3.39,5.84.45,8.66,1.71,15.92,3.2,21.56,4.42l1.23-4.85c-11.78-3.4-13.75-5.82-14-6.2,0-4.77.08-9.27,7.52-12.57.33-.15,1.76-.62,6.52-.62,14.65,0,40.09,4.22,43.9,7.28,3.63,2.92,7.13,7.55,6.47,10.36-.56,2.35-4.2,3.6-7.15,4.23l.68,4.94c1.46-.08,2.89-.13,4.25-.13,13.05,0,20.63,4,28,9.95l8.61,7-.26.31.3.27.29-.31,6.7,5.44-5.23-7,1.67-1.77-.47-.42L373,244.4l-6.52-8.71-.19-.27c-3.75-5.47-1.59-17.39,5.64-31.09a124.12,124.12,0,0,1,30-36.6c9.67-7.94,24.68-17.4,41.33-17.4a81.5,81.5,0,0,1,1,163h-1A81.22,81.22,0,0,1,388,291.75l-3.15-2.9-1,4.17c-3.64,15.43-19,29.78-43.2,40.41C315.84,344.33,283.72,350.33,250.23,350.33ZM142.45,268c-4.1-3.37-11.55-10-19.08-16.92,9.75.4,19.18,1,23.19,1.67A106.11,106.11,0,0,0,142.45,268Z"/><path d="M443.23,152.83a79,79,0,0,1,.95,158h-.95a78.79,78.79,0,0,1-53.53-20.91l-6.29-5.81-2,8.33c-3.46,14.65-18.29,28.39-41.77,38.7-24.53,10.76-56.3,16.69-89.45,16.69-34.28,0-58.6-5.8-74.33-17.75-12.59-9.57-19.81-23.23-22.72-43-.37-2.53-.67-5-.89-7.28-1.59-17,1.57-21.41,2.22-22.13.35-.38.53-.38.72-.38a6.16,6.16,0,0,1,3,1.2,30.19,30.19,0,0,1,5.83,5.75,5.17,5.17,0,0,0,4.11,2,5.28,5.28,0,0,0,4.8-3.1,5.17,5.17,0,0,0-.86-5.54,42.76,42.76,0,0,0-8.22-7.38c-10.2-7.41-22.06-8.27-30.1-8.27-1.89,0-3.85,0-6.19.16-1.55.08-3.12.11-4.66.11-7.39,0-10.64-.81-11.87-1.27-1.15-11.5-1.15-12.52-1-13.27a26.79,26.79,0,0,0,.2-3.89c0-5.11,6.53-9.41,10.63-9.41a2.2,2.2,0,0,1,1.17.21,2.34,2.34,0,0,1,.2,1.2c0,2.14,1.45,5.75,6.87,5.75,8.37,0,32.77-8.21,45.87-13.06,9.55-3.54,18.05-5.33,25.27-5.33,13.75,0,20.49,6.41,25.17,12a5.06,5.06,0,0,0-.56,2.1,5.13,5.13,0,0,0,4,5.18q.54.13,1.35.27c.73.13,1.64.24,2.67.35a7.73,7.73,0,0,0,4,1.14,7.31,7.31,0,0,0,3-.65c3.12.14,6.6.21,10.38.21,1.77,0,4.89.28,7.65.53,2.15.19,4.19.38,5.76.45,8.49,1.68,15.61,3.13,21.17,4.34,2,.57,8.67,2.37,10.49,2.37h4.53l.48-4.47c.07-.71.23-4.29-4.1-5.52l-1.8-.47c-1.7-.41-4.17-1-7.15-1.62-7.17-2.08-10.73-3.86-12-4.8,0-4,.52-6.78,6-9.22a21.72,21.72,0,0,1,5.55-.42c14.66,0,38.88,4.18,42.33,6.73,3.77,3,5.87,6.72,5.6,7.84-.06.26-1.08,1.41-4.88,2.28-2.92.19-6.06.54-9.34,1l.93,9.94a60.61,60.61,0,0,0,9.76-1c1.29-.07,2.55-.11,3.75-.11,12.11,0,19,3.45,26,9a43.66,43.66,0,0,0,7.56,6.71c.49.37.95.71,1.21.92l.23.21,6.86-7.27a7.53,7.53,0,0,0-.57-.52l-1.69-1.51c-2.15-1.93-4.19-3.76-6.3-5.5-1.29-2.11-1.57-5.7-.79-10.16a64.62,64.62,0,0,1,6.73-18.11,121.44,121.44,0,0,1,29.34-35.84c9.35-7.68,23.83-16.83,39.74-16.83m-313,101.06c5.11.28,9.78.61,13,1-.55,1.76-1.1,3.65-1.55,5.31-.32,1.17-.59,2.24-.82,3.21-2.94-2.53-6.68-5.86-10.66-9.47M443.23,147.83c-46.39,0-92,70-79,89l.26.36c2.79,2.26,5.51,4.76,8.44,7.37l.3.27-.3-.27c-1.48-1.22-6.17-4.33-8.44-7.37-7.58-6.15-15.61-10.51-29.57-10.51-1.4,0-2.87,0-4.4.14a53.76,53.76,0,0,1-9.29,1c3.35-.51,6.43-.84,9.29-1,16.62-3.57,6.6-15.06,1.71-19S300.66,200,286.77,200c-3.53,0-6.24.26-7.54.83-9,4-9,10-9,15,0,3.18,8.66,6.4,15.8,8.46,7.24,1.57,9.66,2.23,9.27,2.23a80.78,80.78,0,0,1-9.27-2.23c-4.87-1-11.93-2.51-21.8-4.46-3.44-.12-10.49-1-14-1-6,0-10.63-.18-13.91-.42l1.91.42a2.55,2.55,0,0,1-1.39.44,3.55,3.55,0,0,1-2.21-1c-4.16-.37-5.48-.78-4.45-.78a28.19,28.19,0,0,1,4.17.53c-5-4.52-11.7-19.84-34.11-19.84-7.22,0-16.07,1.59-27,5.64-17.92,6.64-38,12.75-44.13,12.75-1.2,0-1.87-.23-1.87-.75,0-4.52-2.78-6.41-6.37-6.41-6.49,0-15.63,6.23-15.63,14.41,0,6.61-1-1,1,19,.39,3.83,10.4,4.43,16.72,4.43,2.45,0,4.35-.09,4.91-.11,1.92-.1,3.91-.16,5.94-.16,9.07,0,18.95,1.3,27.27,7.39a37.53,37.53,0,0,1,7.31,6.59c.13.14,0,.31-.2.31a.18.18,0,0,1-.16-.08,34.64,34.64,0,0,0-7-6.82,11.13,11.13,0,0,0-5.84-2.07c-6.5,0-9.63,9.77-7.91,28,.22,2.37.52,4.89.91,7.54,5.39,36.61,26.34,65,102,65,70.3,0,128.22-25.89,136.08-59.24a83.71,83.71,0,0,0,56.92,22.24h1c44-.52,80.57-35.51,82.88-79.48a84,84,0,0,0-83.89-88.52ZM234.35,218l.28.25,1.69.13c-.71-.15-1.37-.27-2-.38Zm-117.62,30.3s26,24.23,27.92,24.23c.11,0,.14-.07.08-.23-1-3,4-19,5-21s-33-3-33-3Z"/></g></g><g id="ultrasound"><path class="cls-1" d="M626.73,423.33c-239,184-625.21,53.05-624,3l144-422s142,100,322,0Z"/></g></svg>