<svg id="hepatic" xmlns="http://www.w3.org/2000/svg" viewBox="0 0 270.76 166.7">
	<style>
		#hepatic:hover { fill: #3377a0 !important; }
		#hepatic { cursor: pointer; }

	</style>
	<g id="liver-right"><path d="M7.41,19.7c-8,21-12,147,1,147,38,0,65-7,80-18s20.75-37.72,37-52c41-36,69-80.39,64-83C173.17,5.3,24.41-15.3,7.41,19.7Z"/></g><g id="liver-left"><path d="M120.41,104.7c11-4,67-57,75-87,1.65-6.18,74.22-1.54,75,2,2,9-4,22-34.5,41.5C207.7,79.24,108.41,116.7,120.41,104.7Z"/></g><g id="biliar-duct"><path d="M132.91,107.7s7.5,19.5,8.5,33.5h10l-3-20,14,6,4-10c-2.72.6-24.5-9.5-20.9-12.4Z"/></g>
<defs>
	<script>
		let icon = document.querySelector("#hepatic");

		function logMyId() {
		console.log(this.id);
		}

		icon.addEventListener("click", logMyId);

	</script>
</defs>
</svg>