<svg xmlns="http://www.w3.org/2000/svg" viewBox="0 0 364.86 398.89"><defs><style>.cls-1{stroke:#fff;stroke-miterlimit:10;stroke-width:5px;}</style></defs><g id="skull"><path id="skull-orbit" d="M160.05,0c1.79,0,38.4.35,95.93,14,59,14,73,60,91,103,17.93,42.83,12,23.15,6.07,41.78a1.69,1.69,0,0,1-.19.41c-12,17.72-3.13,29.31-2,30.68a2.39,2.39,0,0,0,.23.22c20.74,16.8,13.94,13,6,30.62a1.53,1.53,0,0,1-.36.51c-18.81,18.08-16.59,26.64-15.27,29.05a1.6,1.6,0,0,0,1.18.83c2.91.48,14.2,2.67,13.32,7.9-1,6-4,7,0,21,3.24,11.32-1.37,28.52-3.26,34.69-.32,1.07-4,2.18-4.74,1.31-2.38-3-3.64-3.35-6-2a2.54,2.54,0,0,1-3.74-.89,1.64,1.64,0,0,0-2.48-.62,7.93,7.93,0,0,1-4.12,1.49c-.42,0-1,0-1.16-.41-1.5-3.57-4.5-5.57-7.2-2.22-.79,1-4.77.8-5.3-.35-2.08-4.6-3.61-1.94-5-1-.55.37-4.74.61-5,0-1-2.5-5-3-7.26-.31-.35.41-1.51.4-1.54-.14-.16-3.65-6.15-4.42-6.89-1.24-.1.47-.56,1-1,.91C285,308,290.59,307.14,286,305c-.9-.42-3.14,1.21-5,1l-5-1.43a1.66,1.66,0,0,1-1.81-.33C262.24,292.9,268,290.38,269,262c1-29-4-22-44-32-39.21-9.8-57.28,47.66-58,49.93l-.06.16c-.74,1.69-13.74,27.8-98-6.09C-16.7,239.53,1.4,142,2,139.07a.77.77,0,0,0,0-.15C12.91,13.58,156.32.32,159.92,0ZM322,152s-60,35-31,68c33,6,40,8,31-19s4-23,4-23S342,145,322,152Z"/></g><g id="jaw"><path class="cls-1" d="M182,272s13-21,18-18c5,9,9.63,36.59,24,20,13-15,14-17,14-17s22,7,19,17c-12.85,10.75-8,60.77,8,59,10-1.11,9,0,9,0s0,4,3,3,4.26-5.7,7,0c3.12,6.48,3-.55,8,1,4.06,1.26,3,4,3,4s2,5,3,2,3-2.26,5-2c3.92.52,4.07,6.57,5,5,2.77-4.62,7-2,10,2,.81,1.07,4.53-4,6,0,2.07,5.6,4.82,1.51,6,1,1.94-.83,3-.29,3,0l1,2h2c2.32-.07-.62-2.1,3-2,3.72-.12,3-1.07,2,13s8,27,0,31-25,5-39,0c0,0-24-11-44-16s-46-8-47-33S199,287,182,272Z"/></g></svg>